<svg width="263" height="47" viewBox="0 0 263 47" fill="none" xmlns="http://www.w3.org/2000/svg">
<path fill-rule="evenodd" clip-rule="evenodd" d="M94.936 23.184C95 22.416 95.032 21.824 95.032 21.408C95.032 18.784 94.472 16.48 93.352 14.496C92.264 12.48 90.728 10.928 88.744 9.84C86.792 8.72 84.568 8.16 82.072 8.16C79.544 8.16 77.272 8.72 75.256 9.84C73.24 10.96 71.656 12.528 70.504 14.544C69.384 16.528 68.824 18.768 68.824 21.264C68.824 23.792 69.4 26.064 70.552 28.08C71.736 30.064 73.4 31.616 75.544 32.736C77.688 33.856 80.168 34.416 82.984 34.416C85.192 34.416 87.176 34.064 88.936 33.36C90.696 32.656 92.152 31.616 93.304 30.24L90.088 26.544C88.264 28.4 85.944 29.328 83.128 29.328C80.92 29.328 79.064 28.784 77.56 27.696C76.088 26.576 75.176 25.072 74.824 23.184H94.936ZM77.176 14.688C78.52 13.536 80.152 12.96 82.072 12.96C84.024 12.96 85.656 13.536 86.968 14.688C88.28 15.84 89.064 17.344 89.32 19.2H74.776C75.064 17.312 75.864 15.808 77.176 14.688ZM123.115 10.992C121.163 9.104 118.571 8.16 115.339 8.16C113.451 8.16 111.755 8.464 110.251 9.072C108.747 9.68 107.499 10.576 106.507 11.76V8.448H100.795V34.08H106.795V21.12C106.795 18.624 107.435 16.72 108.715 15.408C109.995 14.064 111.739 13.392 113.947 13.392C115.899 13.392 117.403 13.968 118.459 15.12C119.515 16.24 120.043 17.92 120.043 20.16V34.08H126.043V19.392C126.043 15.68 125.067 12.88 123.115 10.992ZM146.471 33.984C147.495 33.696 148.359 33.264 149.063 32.688L147.383 28.416C146.487 29.12 145.367 29.472 144.023 29.472C142.871 29.472 141.991 29.152 141.383 28.512C140.775 27.84 140.471 26.88 140.471 25.632V13.44H147.335V8.64H140.471V2.784H134.471V8.64H130.247V13.44H134.471V25.776C134.471 28.592 135.239 30.736 136.775 32.208C138.311 33.68 140.487 34.416 143.303 34.416C144.423 34.416 145.479 34.272 146.471 33.984ZM179.774 34.08V28.848H160.814V19.584H177.038V14.448H160.814V5.712H179.102V0.48H154.574V34.08H179.774ZM192.926 32.352C195.678 33.824 198.75 34.56 202.142 34.56C204.894 34.56 207.406 34.08 209.678 33.12C211.982 32.16 213.918 30.768 215.486 28.944L211.454 25.104C209.022 27.76 206.03 29.088 202.478 29.088C200.174 29.088 198.11 28.592 196.286 27.6C194.462 26.576 193.038 25.168 192.014 23.376C190.99 21.584 190.478 19.552 190.478 17.28C190.478 15.008 190.99 12.976 192.014 11.184C193.038 9.392 194.462 8 196.286 7.008C198.11 5.984 200.174 5.472 202.478 5.472C206.03 5.472 209.022 6.784 211.454 9.408L215.486 5.616C213.918 3.792 211.998 2.4 209.726 1.44C207.454 0.48 204.942 0 202.19 0C198.798 0 195.726 0.752 192.974 2.256C190.254 3.728 188.11 5.776 186.542 8.4C184.974 11.024 184.19 13.984 184.19 17.28C184.19 20.576 184.958 23.536 186.494 26.16C188.062 28.784 190.206 30.848 192.926 32.352ZM29.7119 28.848V34.08H4.51191V0.479954H29.0399V5.71196H10.7519V14.448H26.9759V19.584H10.7519V28.848H29.7119ZM225.909 18.58H232.454L223.727 10.33L215 18.58H221.545C221.545 27.6962 229.356 35.08 239 35.08C242.425 35.08 245.611 34.1312 248.294 32.5225L245.109 29.5112C243.298 30.4393 241.204 30.955 239 30.955C231.778 30.955 225.909 25.4068 225.909 18.58ZM229.705 4.63746L232.891 7.64871C234.724 6.74121 236.796 6.20496 239 6.20496C246.222 6.20496 252.091 11.7531 252.091 18.58H245.545L254.273 26.83L263 18.58H256.454C256.454 9.46371 248.644 2.07996 239 2.07996C235.574 2.07996 232.389 3.02871 229.705 4.63746ZM63.545 8.56856L65.2999 13.9989C65.4788 14.5534 65.8763 15.0064 66.405 15.2583C66.9337 15.5102 67.5503 15.5403 68.1192 15.342C68.6881 15.1437 69.1627 14.7333 69.4385 14.201C69.7143 13.6687 69.7688 13.0582 69.59 12.5037L66.2048 2.05408C66.0253 1.50072 65.6279 1.04888 65.0998 0.797761C64.5717 0.546636 63.956 0.516749 63.3879 0.714663L52.6701 4.46381C52.1016 4.66258 51.6275 5.07334 51.3523 5.60574C51.0771 6.13814 51.0232 6.74855 51.2025 7.30271C51.3819 7.85686 51.7797 8.30936 52.3085 8.56065C52.8374 8.81195 53.4539 8.84146 54.0225 8.64269L59.5351 6.71549L48.8009 27.2662C48.6177 27.6169 48.3461 27.9175 48.0135 28.138C47.6809 28.3584 47.2989 28.4909 46.9056 28.5222C46.5123 28.5534 46.1217 28.4825 45.7726 28.3163C45.4236 28.1501 45.1285 27.8946 44.9169 27.5753L36.9987 15.6217C36.6783 15.138 36.1713 14.8074 35.5893 14.7025C35.0073 14.5977 34.3979 14.7273 33.8952 15.0627C33.3926 15.3982 33.0378 15.912 32.9089 16.4913C32.78 17.0705 32.8876 17.6677 33.2081 18.1514L41.1262 30.105C41.7612 31.0629 42.6465 31.8295 43.6936 32.328C44.7406 32.8265 45.9126 33.0395 47.0924 32.9456C48.2722 32.8517 49.4183 32.4543 50.4162 31.793C51.4141 31.1318 52.2286 30.2299 52.7784 29.1777L63.545 8.56856ZM1.50009 43.08C0.67166 43.08 4.82313e-05 43.7515 2.59705e-09 44.58C-4.82207e-05 45.4084 0.671486 46.08 1.49991 46.08L256.5 46.0949C257.328 46.0949 258 45.4234 258 44.595C258 43.7665 257.329 43.0949 256.5 43.0949L1.50009 43.08Z" fill="#2A4F27"/>
</svg>
