<svg width="359" height="73" viewBox="0 0 359 73" fill="none" xmlns="http://www.w3.org/2000/svg">
<g filter="url(#filter0_d_243_19)">
<mask id="path-1-outside-1_243_19" maskUnits="userSpaceOnUse" x="4" y="0" width="351" height="65" fill="black">
<rect fill="white" x="4" width="351" height="65"/>
<path fill-rule="evenodd" clip-rule="evenodd" d="M128.248 31.912C128.333 30.888 128.376 30.0987 128.376 29.544C128.376 26.0453 127.629 22.9733 126.136 20.328C124.685 17.64 122.637 15.5707 119.992 14.12C117.389 12.6267 114.424 11.88 111.096 11.88C107.725 11.88 104.696 12.6267 102.008 14.12C99.32 15.6133 97.208 17.704 95.672 20.392C94.1787 23.0373 93.432 26.024 93.432 29.352C93.432 32.7227 94.2 35.752 95.736 38.44C97.3147 41.0853 99.5333 43.1547 102.392 44.648C105.251 46.1413 108.557 46.888 112.312 46.888C115.256 46.888 117.901 46.4187 120.248 45.48C122.595 44.5413 124.536 43.1547 126.072 41.32L121.784 36.392C119.352 38.8667 116.259 40.104 112.504 40.104C109.56 40.104 107.085 39.3787 105.08 37.928C103.117 36.4347 101.901 34.4293 101.432 31.912H128.248ZM104.568 20.584C106.36 19.048 108.536 18.28 111.096 18.28C113.699 18.28 115.875 19.048 117.624 20.584C119.373 22.12 120.419 24.1253 120.76 26.6H101.368C101.752 24.0827 102.819 22.0773 104.568 20.584ZM165.82 15.656C163.218 13.1387 159.762 11.88 155.452 11.88C152.935 11.88 150.674 12.2853 148.669 13.096C146.663 13.9067 144.999 15.1013 143.676 16.68V12.264H136.061V46.44H144.061V29.16C144.061 25.832 144.914 23.2933 146.62 21.544C148.327 19.752 150.652 18.856 153.596 18.856C156.199 18.856 158.204 19.624 159.613 21.16C161.021 22.6533 161.725 24.8933 161.725 27.88V46.44H169.725V26.856C169.725 21.9067 168.423 18.1733 165.82 15.656ZM196.961 46.312C198.326 45.928 199.478 45.352 200.417 44.584L198.177 38.888C196.982 39.8267 195.489 40.296 193.697 40.296C192.161 40.296 190.988 39.8693 190.177 39.016C189.366 38.12 188.961 36.84 188.961 35.176V18.92H198.113V12.52H188.961V4.712H180.961V12.52H175.329V18.92H180.961V35.368C180.961 39.1227 181.985 41.9813 184.033 43.944C186.081 45.9067 188.982 46.888 192.737 46.888C194.23 46.888 195.638 46.696 196.961 46.312ZM241.366 46.44V39.464H216.086V27.112H237.718V20.264H216.086V8.616H240.47V1.64H207.766V46.44H241.366ZM258.902 44.136C262.571 46.0987 266.667 47.08 271.19 47.08C274.859 47.08 278.208 46.44 281.237 45.16C284.31 43.88 286.891 42.024 288.982 39.592L283.605 34.472C280.363 38.0133 276.374 39.784 271.638 39.784C268.565 39.784 265.814 39.1227 263.382 37.8C260.949 36.4347 259.051 34.5573 257.686 32.168C256.32 29.7787 255.637 27.0693 255.637 24.04C255.637 21.0107 256.32 18.3013 257.686 15.912C259.051 13.5227 260.949 11.6667 263.382 10.344C265.814 8.97867 268.565 8.296 271.638 8.296C276.374 8.296 280.363 10.0453 283.605 13.544L288.982 8.488C286.891 6.056 284.331 4.2 281.302 2.92C278.272 1.64 274.923 1 271.254 1C266.731 1 262.635 2.00267 258.965 4.008C255.339 5.97067 252.48 8.70133 250.389 12.2C248.299 15.6987 247.253 19.6453 247.253 24.04C247.253 28.4347 248.277 32.3813 250.326 35.88C252.416 39.3787 255.275 42.1307 258.902 44.136ZM302.545 24.94H311.273L299.636 13.19L288 24.94H296.727C296.727 37.9238 307.142 48.44 320 48.44C324.567 48.44 328.815 47.0888 332.393 44.7975L328.145 40.5088C325.731 41.8306 322.938 42.565 320 42.565C310.371 42.565 302.545 34.6631 302.545 24.94ZM307.607 5.0825L311.855 9.37125C314.298 8.07875 317.062 7.315 320 7.315C329.629 7.315 337.455 15.2169 337.455 24.94H328.727L340.364 36.69L352 24.94H343.273C343.273 11.9563 332.858 1.44 320 1.44C315.433 1.44 311.185 2.79125 307.607 5.0825ZM44.616 39.464V46.44H11.016V1.64H43.72V8.616H19.336V20.264H40.968V27.112H19.336V39.464H44.616ZM85.3946 16.8986L87.6828 24.6747C87.916 25.4687 88.4362 26.155 89.129 26.5828C89.8219 27.0105 90.6306 27.1446 91.3772 26.9556C92.1239 26.7666 92.7474 26.27 93.1105 25.5749C93.4736 24.8798 93.5466 24.0433 93.3134 23.2494L88.8997 8.28475C88.6658 7.49227 88.1457 6.80755 87.4536 6.38092C86.7615 5.95429 85.9541 5.82061 85.2085 6.00923L71.1414 9.58882C70.3951 9.77855 69.7723 10.2758 69.41 10.971C69.0476 11.6663 68.9754 12.5028 69.2093 13.2963C69.4431 14.0899 69.9638 14.7756 70.6568 15.2026C71.3498 15.6295 72.1583 15.7628 72.9046 15.5731L80.1399 13.7335L66.0089 40.5555C65.7677 41.0133 65.4108 41.3885 64.9739 41.6436C64.5371 41.8986 64.0357 42.0246 63.5198 42.0089C63.0039 41.9933 62.4917 41.8365 62.0343 41.5542C61.577 41.272 61.1905 40.8742 60.9137 40.4007L50.5583 22.6755C50.1392 21.9583 49.4751 21.4248 48.712 21.1925C47.9489 20.9601 47.1493 21.048 46.4891 21.4367C45.829 21.8254 45.3623 22.4832 45.1918 23.2652C45.0213 24.0473 45.161 24.8896 45.58 25.6069L55.9354 43.332C56.7659 44.7526 57.9252 45.9459 59.2972 46.7926C60.6693 47.6393 62.206 48.1098 63.7537 48.1568C65.3013 48.2038 66.8056 47.8258 68.1161 47.0606C69.4266 46.2954 70.4973 45.1699 71.2211 43.7966L85.3946 16.8986ZM6.5 60.44C5.67157 60.44 5 61.1116 5 61.94C5 62.7684 5.67157 63.44 6.5 63.44H346.5C347.328 63.44 348 62.7684 348 61.94C348 61.1116 347.328 60.44 346.5 60.44H6.5Z"/>
</mask>
<path fill-rule="evenodd" clip-rule="evenodd" d="M128.248 31.912C128.333 30.888 128.376 30.0987 128.376 29.544C128.376 26.0453 127.629 22.9733 126.136 20.328C124.685 17.64 122.637 15.5707 119.992 14.12C117.389 12.6267 114.424 11.88 111.096 11.88C107.725 11.88 104.696 12.6267 102.008 14.12C99.32 15.6133 97.208 17.704 95.672 20.392C94.1787 23.0373 93.432 26.024 93.432 29.352C93.432 32.7227 94.2 35.752 95.736 38.44C97.3147 41.0853 99.5333 43.1547 102.392 44.648C105.251 46.1413 108.557 46.888 112.312 46.888C115.256 46.888 117.901 46.4187 120.248 45.48C122.595 44.5413 124.536 43.1547 126.072 41.32L121.784 36.392C119.352 38.8667 116.259 40.104 112.504 40.104C109.56 40.104 107.085 39.3787 105.08 37.928C103.117 36.4347 101.901 34.4293 101.432 31.912H128.248ZM104.568 20.584C106.36 19.048 108.536 18.28 111.096 18.28C113.699 18.28 115.875 19.048 117.624 20.584C119.373 22.12 120.419 24.1253 120.76 26.6H101.368C101.752 24.0827 102.819 22.0773 104.568 20.584ZM165.82 15.656C163.218 13.1387 159.762 11.88 155.452 11.88C152.935 11.88 150.674 12.2853 148.669 13.096C146.663 13.9067 144.999 15.1013 143.676 16.68V12.264H136.061V46.44H144.061V29.16C144.061 25.832 144.914 23.2933 146.62 21.544C148.327 19.752 150.652 18.856 153.596 18.856C156.199 18.856 158.204 19.624 159.613 21.16C161.021 22.6533 161.725 24.8933 161.725 27.88V46.44H169.725V26.856C169.725 21.9067 168.423 18.1733 165.82 15.656ZM196.961 46.312C198.326 45.928 199.478 45.352 200.417 44.584L198.177 38.888C196.982 39.8267 195.489 40.296 193.697 40.296C192.161 40.296 190.988 39.8693 190.177 39.016C189.366 38.12 188.961 36.84 188.961 35.176V18.92H198.113V12.52H188.961V4.712H180.961V12.52H175.329V18.92H180.961V35.368C180.961 39.1227 181.985 41.9813 184.033 43.944C186.081 45.9067 188.982 46.888 192.737 46.888C194.23 46.888 195.638 46.696 196.961 46.312ZM241.366 46.44V39.464H216.086V27.112H237.718V20.264H216.086V8.616H240.47V1.64H207.766V46.44H241.366ZM258.902 44.136C262.571 46.0987 266.667 47.08 271.19 47.08C274.859 47.08 278.208 46.44 281.237 45.16C284.31 43.88 286.891 42.024 288.982 39.592L283.605 34.472C280.363 38.0133 276.374 39.784 271.638 39.784C268.565 39.784 265.814 39.1227 263.382 37.8C260.949 36.4347 259.051 34.5573 257.686 32.168C256.32 29.7787 255.637 27.0693 255.637 24.04C255.637 21.0107 256.32 18.3013 257.686 15.912C259.051 13.5227 260.949 11.6667 263.382 10.344C265.814 8.97867 268.565 8.296 271.638 8.296C276.374 8.296 280.363 10.0453 283.605 13.544L288.982 8.488C286.891 6.056 284.331 4.2 281.302 2.92C278.272 1.64 274.923 1 271.254 1C266.731 1 262.635 2.00267 258.965 4.008C255.339 5.97067 252.48 8.70133 250.389 12.2C248.299 15.6987 247.253 19.6453 247.253 24.04C247.253 28.4347 248.277 32.3813 250.326 35.88C252.416 39.3787 255.275 42.1307 258.902 44.136ZM302.545 24.94H311.273L299.636 13.19L288 24.94H296.727C296.727 37.9238 307.142 48.44 320 48.44C324.567 48.44 328.815 47.0888 332.393 44.7975L328.145 40.5088C325.731 41.8306 322.938 42.565 320 42.565C310.371 42.565 302.545 34.6631 302.545 24.94ZM307.607 5.0825L311.855 9.37125C314.298 8.07875 317.062 7.315 320 7.315C329.629 7.315 337.455 15.2169 337.455 24.94H328.727L340.364 36.69L352 24.94H343.273C343.273 11.9563 332.858 1.44 320 1.44C315.433 1.44 311.185 2.79125 307.607 5.0825ZM44.616 39.464V46.44H11.016V1.64H43.72V8.616H19.336V20.264H40.968V27.112H19.336V39.464H44.616ZM85.3946 16.8986L87.6828 24.6747C87.916 25.4687 88.4362 26.155 89.129 26.5828C89.8219 27.0105 90.6306 27.1446 91.3772 26.9556C92.1239 26.7666 92.7474 26.27 93.1105 25.5749C93.4736 24.8798 93.5466 24.0433 93.3134 23.2494L88.8997 8.28475C88.6658 7.49227 88.1457 6.80755 87.4536 6.38092C86.7615 5.95429 85.9541 5.82061 85.2085 6.00923L71.1414 9.58882C70.3951 9.77855 69.7723 10.2758 69.41 10.971C69.0476 11.6663 68.9754 12.5028 69.2093 13.2963C69.4431 14.0899 69.9638 14.7756 70.6568 15.2026C71.3498 15.6295 72.1583 15.7628 72.9046 15.5731L80.1399 13.7335L66.0089 40.5555C65.7677 41.0133 65.4108 41.3885 64.9739 41.6436C64.5371 41.8986 64.0357 42.0246 63.5198 42.0089C63.0039 41.9933 62.4917 41.8365 62.0343 41.5542C61.577 41.272 61.1905 40.8742 60.9137 40.4007L50.5583 22.6755C50.1392 21.9583 49.4751 21.4248 48.712 21.1925C47.9489 20.9601 47.1493 21.048 46.4891 21.4367C45.829 21.8254 45.3623 22.4832 45.1918 23.2652C45.0213 24.0473 45.161 24.8896 45.58 25.6069L55.9354 43.332C56.7659 44.7526 57.9252 45.9459 59.2972 46.7926C60.6693 47.6393 62.206 48.1098 63.7537 48.1568C65.3013 48.2038 66.8056 47.8258 68.1161 47.0606C69.4266 46.2954 70.4973 45.1699 71.2211 43.7966L85.3946 16.8986ZM6.5 60.44C5.67157 60.44 5 61.1116 5 61.94C5 62.7684 5.67157 63.44 6.5 63.44H346.5C347.328 63.44 348 62.7684 348 61.94C348 61.1116 347.328 60.44 346.5 60.44H6.5Z" fill="white"/>
<path d="M128.248 31.912V32.912H129.168L129.245 31.995L128.248 31.912ZM126.136 20.328L125.256 20.8029L125.26 20.8113L125.265 20.8196L126.136 20.328ZM119.992 14.12L119.494 14.9874L119.503 14.9922L119.511 14.9968L119.992 14.12ZM102.008 14.12L102.494 14.9942V14.9942L102.008 14.12ZM95.672 20.392L94.8037 19.8959L94.8012 19.9004L95.672 20.392ZM95.736 38.44L94.8678 38.9361L94.8724 38.9443L94.8773 38.9525L95.736 38.44ZM126.072 41.32L126.839 41.9619L127.387 41.3075L126.826 40.6636L126.072 41.32ZM121.784 36.392L122.538 35.7356L121.829 34.9199L121.071 35.6911L121.784 36.392ZM105.08 37.928L104.474 38.7238L104.484 38.7311L104.494 38.7382L105.08 37.928ZM101.432 31.912V30.912H100.228L100.449 32.0953L101.432 31.912ZM104.568 20.584L105.217 21.3446L105.219 21.3433L104.568 20.584ZM117.624 20.584L116.964 21.3354L117.624 20.584ZM120.76 26.6V27.6H121.907L121.751 26.4634L120.76 26.6ZM101.368 26.6L100.379 26.4492L100.204 27.6H101.368V26.6ZM165.82 15.656L165.125 16.3748V16.3748L165.82 15.656ZM148.669 13.096L149.043 14.0231V14.0231L148.669 13.096ZM143.676 16.68H142.676V19.4307L144.443 17.3222L143.676 16.68ZM143.676 12.264H144.676V11.264H143.676V12.264ZM136.061 12.264V11.264H135.061V12.264H136.061ZM136.061 46.44H135.061V47.44H136.061V46.44ZM144.061 46.44V47.44H145.061V46.44H144.061ZM146.62 21.544L147.336 22.2424L147.345 22.2337L146.62 21.544ZM159.613 21.16L158.875 21.8358L158.885 21.846L159.613 21.16ZM161.725 46.44H160.725V47.44H161.725V46.44ZM169.725 46.44V47.44H170.725V46.44H169.725ZM200.417 44.584L201.05 45.358L201.614 44.8964L201.348 44.218L200.417 44.584ZM196.961 46.312L196.69 45.3493L196.682 45.3517L196.961 46.312ZM198.177 38.888L199.108 38.522L198.616 37.2715L197.559 38.1017L198.177 38.888ZM190.177 39.016L189.435 39.6869L189.444 39.6959L189.452 39.7048L190.177 39.016ZM188.961 18.92V17.92H187.961V18.92H188.961ZM198.113 18.92V19.92H199.113V18.92H198.113ZM198.113 12.52H199.113V11.52H198.113V12.52ZM188.961 12.52H187.961V13.52H188.961V12.52ZM188.961 4.712H189.961V3.712H188.961V4.712ZM180.961 4.712V3.712H179.961V4.712H180.961ZM180.961 12.52V13.52H181.961V12.52H180.961ZM175.329 12.52V11.52H174.329V12.52H175.329ZM175.329 18.92H174.329V19.92H175.329V18.92ZM180.961 18.92H181.961V17.92H180.961V18.92ZM184.033 43.944L184.725 43.222V43.222L184.033 43.944ZM241.366 39.464H242.366V38.464H241.366V39.464ZM241.366 46.44V47.44H242.366V46.44H241.366ZM216.086 39.464H215.086V40.464H216.086V39.464ZM216.086 27.112V26.112H215.086V27.112H216.086ZM237.718 27.112V28.112H238.718V27.112H237.718ZM237.718 20.264H238.718V19.264H237.718V20.264ZM216.086 20.264H215.086V21.264H216.086V20.264ZM216.086 8.616V7.616H215.086V8.616H216.086ZM240.47 8.616V9.616H241.47V8.616H240.47ZM240.47 1.64H241.47V0.639999H240.47V1.64ZM207.766 1.64V0.639999H206.766V1.64H207.766ZM207.766 46.44H206.766V47.44H207.766V46.44ZM258.902 44.136L258.418 45.0112L258.43 45.0178L258.902 44.136ZM281.237 45.16L280.853 44.2369L280.848 44.2389L281.237 45.16ZM288.982 39.592L289.74 40.2439L290.359 39.5233L289.671 38.8679L288.982 39.592ZM283.605 34.472L284.295 33.7479L283.557 33.0445L282.868 33.7967L283.605 34.472ZM263.382 37.8L262.892 38.6721L262.904 38.6785L263.382 37.8ZM257.686 32.168L258.554 31.6719V31.6719L257.686 32.168ZM257.686 15.912L258.554 16.4081V16.4081L257.686 15.912ZM263.382 10.344L263.859 11.2226L263.871 11.216L263.382 10.344ZM283.605 13.544L282.872 14.2238L283.557 14.9626L284.291 14.2725L283.605 13.544ZM288.982 8.488L289.667 9.21645L290.363 8.56129L289.74 7.83611L288.982 8.488ZM281.302 2.92L281.691 1.99886V1.99885L281.302 2.92ZM258.965 4.008L259.441 4.88748L259.445 4.8855L258.965 4.008ZM250.389 12.2L249.531 11.687L250.389 12.2ZM250.326 35.88L249.462 36.3852L249.467 36.393L250.326 35.88ZM311.273 24.94V25.94H313.67L311.983 24.2363L311.273 24.94ZM302.545 24.94V23.94H301.545V24.94H302.545ZM299.636 13.19L300.347 12.4863L299.636 11.7689L298.926 12.4863L299.636 13.19ZM288 24.94L287.289 24.2363L285.602 25.94H288V24.94ZM296.727 24.94H297.727V23.94H296.727V24.94ZM332.393 44.7975L332.932 45.6396L333.974 44.9727L333.103 44.0938L332.393 44.7975ZM328.145 40.5088L328.856 39.8051L328.326 39.2699L327.665 39.6316L328.145 40.5088ZM311.855 9.37125L311.144 10.0749L311.666 10.6022L312.322 10.2552L311.855 9.37125ZM307.607 5.0825L307.068 4.24036L306.026 4.90734L306.897 5.78617L307.607 5.0825ZM337.455 24.94V25.94H338.455V24.94H337.455ZM328.727 24.94V23.94H326.33L328.017 25.6437L328.727 24.94ZM340.364 36.69L339.653 37.3937L340.364 38.1111L341.074 37.3937L340.364 36.69ZM352 24.94L352.711 25.6437L354.398 23.94H352V24.94ZM343.273 24.94H342.273V25.94H343.273V24.94ZM44.616 46.44V47.44H45.616V46.44H44.616ZM44.616 39.464H45.616V38.464H44.616V39.464ZM11.016 46.44H10.016V47.44H11.016V46.44ZM11.016 1.64V0.639999H10.016V1.64H11.016ZM43.72 1.64H44.72V0.639999H43.72V1.64ZM43.72 8.616V9.616H44.72V8.616H43.72ZM19.336 8.616V7.616H18.336V8.616H19.336ZM19.336 20.264H18.336V21.264H19.336V20.264ZM40.968 20.264H41.968V19.264H40.968V20.264ZM40.968 27.112V28.112H41.968V27.112H40.968ZM19.336 27.112V26.112H18.336V27.112H19.336ZM19.336 39.464H18.336V40.464H19.336V39.464ZM87.6828 24.6747L88.6423 24.3929L88.6421 24.3924L87.6828 24.6747ZM85.3946 16.8986L86.354 16.6163L85.6585 14.2528L84.5099 16.4324L85.3946 16.8986ZM89.129 26.5828L88.6037 27.4337V27.4337L89.129 26.5828ZM93.3134 23.2494L94.2729 22.9676L94.2726 22.9665L93.3134 23.2494ZM88.8997 8.28475L89.8589 8.00185L89.8588 8.0016L88.8997 8.28475ZM87.4536 6.38092L87.9784 5.52967L87.9783 5.52967L87.4536 6.38092ZM85.2085 6.00923L84.9632 5.03977L84.9619 5.04011L85.2085 6.00923ZM71.1414 9.58882L71.3878 10.558L71.388 10.5579L71.1414 9.58882ZM69.41 10.971L68.5232 10.5089L68.5232 10.5089L69.41 10.971ZM69.2093 13.2963L70.1685 13.0137V13.0137L69.2093 13.2963ZM70.6568 15.2026L71.1813 14.3512L71.1813 14.3512L70.6568 15.2026ZM72.9046 15.5731L73.151 16.5423V16.5423L72.9046 15.5731ZM80.1399 13.7335L81.0246 14.1997L82.0727 12.2103L79.8935 12.7644L80.1399 13.7335ZM66.0089 40.5555L66.8936 41.0218L66.8937 41.0216L66.0089 40.5555ZM64.9739 41.6436L64.4697 40.78V40.78L64.9739 41.6436ZM63.5198 42.0089L63.4894 43.0085L63.5198 42.0089ZM60.9137 40.4007L60.0503 40.9051L60.0504 40.9054L60.9137 40.4007ZM50.5583 22.6755L49.6948 23.18V23.18L50.5583 22.6755ZM48.712 21.1925L49.0032 20.2358L48.712 21.1925ZM45.1918 23.2652L46.1689 23.4782L45.1918 23.2652ZM45.58 25.6069L46.4435 25.1024V25.1024L45.58 25.6069ZM55.9354 43.332L55.072 43.8365L55.0721 43.8367L55.9354 43.332ZM59.2972 46.7926L59.8224 45.9416H59.8224L59.2972 46.7926ZM63.7537 48.1568L63.784 47.1572L63.7537 48.1568ZM68.1161 47.0606L67.6119 46.1971L68.1161 47.0606ZM71.2211 43.7966L72.1057 44.2628L72.1057 44.2627L71.2211 43.7966ZM127.376 29.544C127.376 30.0568 127.336 30.8136 127.251 31.829L129.245 31.995C129.331 30.9624 129.376 30.1405 129.376 29.544H127.376ZM125.265 20.8196C126.662 23.2935 127.376 26.1912 127.376 29.544H129.376C129.376 25.8995 128.597 22.6532 127.007 19.8364L125.265 20.8196ZM119.511 14.9968C121.985 16.3536 123.896 18.2823 125.256 20.8029L127.016 19.8531C125.475 16.9977 123.289 14.7878 120.473 13.2432L119.511 14.9968ZM111.096 12.88C114.269 12.88 117.059 13.5902 119.494 14.9874L120.49 13.2526C117.719 11.6632 114.579 10.88 111.096 10.88V12.88ZM102.494 14.9942C105.019 13.5911 107.879 12.88 111.096 12.88V10.88C107.572 10.88 104.373 11.6622 101.522 13.2458L102.494 14.9942ZM96.5402 20.8881C97.9863 18.3576 99.9664 16.3982 102.494 14.9942L101.522 13.2458C98.6736 14.8285 96.4297 17.0504 94.8038 19.8959L96.5402 20.8881ZM94.432 29.352C94.432 26.1794 95.1421 23.3649 96.5428 20.8836L94.8012 19.9004C93.2152 22.7098 92.432 25.8686 92.432 29.352H94.432ZM96.6042 37.9439C95.1621 35.4202 94.432 32.5645 94.432 29.352H92.432C92.432 32.8808 93.2379 36.0838 94.8678 38.9361L96.6042 37.9439ZM102.855 43.7617C100.152 42.3498 98.074 40.4064 96.5947 37.9275L94.8773 38.9525C96.5553 41.7642 98.9144 43.9596 101.929 45.5344L102.855 43.7617ZM112.312 45.888C108.692 45.888 105.549 45.1689 102.855 43.7617L101.929 45.5344C104.952 47.1137 108.423 47.888 112.312 47.888V45.888ZM119.877 44.5515C117.666 45.4358 115.149 45.888 112.312 45.888V47.888C115.363 47.888 118.137 47.4015 120.619 46.4085L119.877 44.5515ZM125.305 40.6781C123.881 42.3789 122.079 43.6707 119.877 44.5515L120.619 46.4085C123.111 45.412 125.191 43.9305 126.839 41.9619L125.305 40.6781ZM121.03 37.0484L125.318 41.9764L126.826 40.6636L122.538 35.7356L121.03 37.0484ZM112.504 41.104C116.503 41.104 119.861 39.7756 122.497 37.0929L121.071 35.6911C118.843 37.9577 116.015 39.104 112.504 39.104V41.104ZM104.494 38.7382C106.7 40.3343 109.39 41.104 112.504 41.104V39.104C109.73 39.104 107.47 38.4231 105.666 37.1178L104.494 38.7382ZM100.449 32.0953C100.962 34.8463 102.306 37.074 104.474 38.7238L105.686 37.1322C103.929 35.7953 102.841 34.0124 102.415 31.7287L100.449 32.0953ZM128.248 30.912H101.432V32.912H128.248V30.912ZM111.096 17.28C108.319 17.28 105.906 18.1198 103.917 19.8247L105.219 21.3433C106.814 19.9762 108.753 19.28 111.096 19.28V17.28ZM118.284 19.8326C116.33 18.1172 113.911 17.28 111.096 17.28V19.28C113.487 19.28 115.419 19.9788 116.964 21.3354L118.284 19.8326ZM121.751 26.4634C121.379 23.7695 120.227 21.5392 118.284 19.8326L116.964 21.3354C118.519 22.7008 119.458 24.4812 119.769 26.7366L121.751 26.4634ZM101.368 27.6H120.76V25.6H101.368V27.6ZM103.919 19.8234C101.967 21.4897 100.795 23.7218 100.379 26.4492L102.357 26.7508C102.709 24.4436 103.671 22.6649 105.217 21.3446L103.919 19.8234ZM155.452 12.88C159.555 12.88 162.744 14.0714 165.125 16.3748L166.516 14.9372C163.692 12.2059 159.969 10.88 155.452 10.88V12.88ZM149.043 14.0231C150.912 13.2678 153.043 12.88 155.452 12.88V10.88C152.827 10.88 150.436 11.3029 148.294 12.1689L149.043 14.0231ZM144.443 17.3222C145.655 15.8755 147.182 14.7755 149.043 14.0231L148.294 12.1689C146.144 13.0378 144.343 14.3271 142.91 16.0378L144.443 17.3222ZM142.676 12.264V16.68H144.676V12.264H142.676ZM136.061 13.264H143.676V11.264H136.061V13.264ZM137.061 46.44V12.264H135.061V46.44H137.061ZM144.061 45.44H136.061V47.44H144.061V45.44ZM143.061 29.16V46.44H145.061V29.16H143.061ZM145.905 20.8457C143.958 22.841 143.061 25.6675 143.061 29.16H145.061C145.061 25.9965 145.87 23.7457 147.336 22.2423L145.905 20.8457ZM153.596 17.856C150.435 17.856 147.827 18.8269 145.896 20.8543L147.345 22.2337C148.827 20.6771 150.87 19.856 153.596 19.856V17.856ZM160.35 20.4843C158.707 18.6923 156.405 17.856 153.596 17.856V19.856C155.994 19.856 157.702 20.5557 158.875 21.8357L160.35 20.4843ZM162.725 27.88C162.725 24.7534 161.989 22.2224 160.34 20.474L158.885 21.846C160.052 23.0842 160.725 25.0333 160.725 27.88H162.725ZM162.725 46.44V27.88H160.725V46.44H162.725ZM169.725 45.44H161.725V47.44H169.725V45.44ZM168.725 26.856V46.44H170.725V26.856H168.725ZM165.125 16.3748C167.47 18.6428 168.725 22.0753 168.725 26.856H170.725C170.725 21.738 169.376 17.7039 166.516 14.9372L165.125 16.3748ZM199.784 43.81C198.968 44.4774 197.945 44.9964 196.69 45.3494L197.232 47.2747C198.707 46.8596 199.989 46.2266 201.05 45.358L199.784 43.81ZM197.246 39.254L199.486 44.95L201.348 44.218L199.108 38.522L197.246 39.254ZM193.697 41.296C195.671 41.296 197.394 40.7752 198.795 39.6743L197.559 38.1017C196.571 38.8781 195.307 39.296 193.697 39.296V41.296ZM189.452 39.7048C190.504 40.8125 191.975 41.296 193.697 41.296V39.296C192.347 39.296 191.471 38.9261 190.902 38.3273L189.452 39.7048ZM187.961 35.176C187.961 36.9939 188.405 38.5475 189.435 39.6869L190.919 38.3451C190.328 37.6925 189.961 36.6861 189.961 35.176H187.961ZM187.961 18.92V35.176H189.961V18.92H187.961ZM198.113 17.92H188.961V19.92H198.113V17.92ZM197.113 12.52V18.92H199.113V12.52H197.113ZM188.961 13.52H198.113V11.52H188.961V13.52ZM187.961 4.712V12.52H189.961V4.712H187.961ZM180.961 5.712H188.961V3.712H180.961V5.712ZM181.961 12.52V4.712H179.961V12.52H181.961ZM175.329 13.52H180.961V11.52H175.329V13.52ZM176.329 18.92V12.52H174.329V18.92H176.329ZM180.961 17.92H175.329V19.92H180.961V17.92ZM181.961 35.368V18.92H179.961V35.368H181.961ZM184.725 43.222C182.931 41.5033 181.961 38.9421 181.961 35.368H179.961C179.961 39.3033 181.039 42.4593 183.341 44.666L184.725 43.222ZM192.737 45.888C189.154 45.888 186.533 44.9546 184.725 43.222L183.341 44.666C185.629 46.8588 188.81 47.888 192.737 47.888V45.888ZM196.682 45.3517C195.457 45.7072 194.144 45.888 192.737 45.888V47.888C194.317 47.888 195.819 47.6848 197.24 47.2724L196.682 45.3517ZM240.366 39.464V46.44H242.366V39.464H240.366ZM216.086 40.464H241.366V38.464H216.086V40.464ZM215.086 27.112V39.464H217.086V27.112H215.086ZM237.718 26.112H216.086V28.112H237.718V26.112ZM236.718 20.264V27.112H238.718V20.264H236.718ZM216.086 21.264H237.718V19.264H216.086V21.264ZM215.086 8.616V20.264H217.086V8.616H215.086ZM240.47 7.616H216.086V9.616H240.47V7.616ZM239.47 1.64V8.616H241.47V1.64H239.47ZM207.766 2.64H240.47V0.639999H207.766V2.64ZM208.766 46.44V1.64H206.766V46.44H208.766ZM241.366 45.44H207.766V47.44H241.366V45.44ZM271.19 46.08C266.817 46.08 262.885 45.1327 259.373 43.2542L258.43 45.0178C262.257 47.0647 266.517 48.08 271.19 48.08V46.08ZM280.848 44.2389C277.956 45.4611 274.741 46.08 271.19 46.08V48.08C274.977 48.08 278.461 47.4189 281.627 46.0812L280.848 44.2389ZM288.223 38.9401C286.238 41.2493 283.786 43.0146 280.853 44.2369L281.622 46.0831C284.833 44.7454 287.544 42.7987 289.74 40.2439L288.223 38.9401ZM282.916 35.1961L288.292 40.3161L289.671 38.8679L284.295 33.7479L282.916 35.1961ZM271.638 40.784C276.658 40.784 280.914 38.8923 284.343 35.1473L282.868 33.7967C279.812 37.1344 276.089 38.784 271.638 38.784V40.784ZM262.904 38.6785C265.498 40.0894 268.417 40.784 271.638 40.784V38.784C268.714 38.784 266.129 38.156 263.859 36.9215L262.904 38.6785ZM256.817 32.6641C258.274 35.213 260.304 37.2192 262.892 38.672L263.871 36.928C261.595 35.6501 259.828 33.9017 258.554 31.6719L256.817 32.6641ZM254.637 24.04C254.637 27.2254 255.357 30.1088 256.817 32.6641L258.554 31.6719C257.283 29.4485 256.637 26.9133 256.637 24.04H254.637ZM256.817 15.4159C255.357 17.9712 254.637 20.8546 254.637 24.04H256.637C256.637 21.1667 257.283 18.6315 258.554 16.4081L256.817 15.4159ZM262.904 9.46552C260.31 10.8763 258.275 12.8643 256.817 15.4159L258.554 16.4081C259.826 14.1811 261.589 12.457 263.859 11.2225L262.904 9.46552ZM271.638 7.296C268.412 7.296 265.488 8.01444 262.892 9.47202L263.871 11.216C266.139 9.9429 268.719 9.296 271.638 9.296V7.296ZM284.339 12.8642C280.909 9.16307 276.654 7.296 271.638 7.296V9.296C276.093 9.296 279.817 10.9276 282.872 14.2238L284.339 12.8642ZM288.296 7.75954L282.92 12.8155L284.291 14.2725L289.667 9.21645L288.296 7.75954ZM280.912 3.84115C283.803 5.06266 286.236 6.82796 288.223 9.13989L289.74 7.83611C287.546 5.28404 284.858 3.33734 281.691 1.99886L280.912 3.84115ZM271.254 2C274.805 2 278.02 2.6189 280.912 3.84115L281.691 1.99885C278.525 0.661106 275.041 0 271.254 0V2ZM259.445 4.8855C262.955 2.96702 266.884 2 271.254 2V0C266.577 0 262.314 1.03831 258.486 3.13049L259.445 4.8855ZM251.248 12.713C253.245 9.37052 255.971 6.76563 259.441 4.88747L258.49 3.12853C254.707 5.1757 251.715 8.03214 249.531 11.687L251.248 12.713ZM248.253 24.04C248.253 19.8113 249.257 16.0445 251.248 12.713L249.531 11.687C247.341 15.3529 246.253 19.4793 246.253 24.04H248.253ZM251.189 35.3748C249.238 32.0422 248.253 28.2725 248.253 24.04H246.253C246.253 28.5968 247.317 32.7205 249.462 36.3852L251.189 35.3748ZM259.385 43.2609C255.911 41.3395 253.182 38.7114 251.184 35.367L249.467 36.393C251.65 40.046 254.639 42.9218 258.418 45.0111L259.385 43.2609ZM311.273 23.94H302.545V25.94H311.273V23.94ZM298.926 13.8937L310.562 25.6437L311.983 24.2363L300.347 12.4863L298.926 13.8937ZM288.711 25.6437L300.347 13.8937L298.926 12.4863L287.289 24.2363L288.711 25.6437ZM296.727 23.94H288V25.94H296.727V23.94ZM320 47.44C307.703 47.44 297.727 37.3806 297.727 24.94H295.727C295.727 38.4669 306.58 49.44 320 49.44V47.44ZM331.853 43.9554C328.428 46.1487 324.367 47.44 320 47.44V49.44C324.768 49.44 329.201 48.0288 332.932 45.6396L331.853 43.9554ZM327.435 41.2124L331.682 45.5012L333.103 44.0938L328.856 39.8051L327.435 41.2124ZM320 43.565C323.105 43.565 326.063 42.7888 328.626 41.3859L327.665 39.6316C325.399 40.8724 322.771 41.565 320 41.565V43.565ZM301.545 24.94C301.545 35.2062 309.809 43.565 320 43.565V41.565C310.932 41.565 303.545 34.12 303.545 24.94H301.545ZM312.565 8.66759L308.318 4.37884L306.897 5.78617L311.144 10.0749L312.565 8.66759ZM320 6.315C316.886 6.315 313.963 7.12494 311.387 8.48729L312.322 10.2552C314.634 9.03257 317.238 8.315 320 8.315V6.315ZM338.455 24.94C338.455 14.6738 330.191 6.315 320 6.315V8.315C329.068 8.315 336.455 15.76 336.455 24.94H338.455ZM328.727 25.94H337.455V23.94H328.727V25.94ZM341.074 35.9863L329.438 24.2363L328.017 25.6437L339.653 37.3937L341.074 35.9863ZM351.289 24.2363L339.653 35.9863L341.074 37.3937L352.711 25.6437L351.289 24.2363ZM343.273 25.94H352V23.94H343.273V25.94ZM320 2.44C332.297 2.44 342.273 12.4994 342.273 24.94H344.273C344.273 11.4132 333.42 0.440002 320 0.440002V2.44ZM308.147 5.92464C311.572 3.73133 315.633 2.44 320 2.44V0.440002C315.232 0.440002 310.799 1.85117 307.068 4.24036L308.147 5.92464ZM45.616 46.44V39.464H43.616V46.44H45.616ZM11.016 47.44H44.616V45.44H11.016V47.44ZM10.016 1.64V46.44H12.016V1.64H10.016ZM43.72 0.639999H11.016V2.64H43.72V0.639999ZM44.72 8.616V1.64H42.72V8.616H44.72ZM19.336 9.616H43.72V7.616H19.336V9.616ZM20.336 20.264V8.616H18.336V20.264H20.336ZM40.968 19.264H19.336V21.264H40.968V19.264ZM41.968 27.112V20.264H39.968V27.112H41.968ZM19.336 28.112H40.968V26.112H19.336V28.112ZM20.336 39.464V27.112H18.336V39.464H20.336ZM44.616 38.464H19.336V40.464H44.616V38.464ZM88.6421 24.3924L86.354 16.6163L84.4353 17.1809L86.7235 24.957L88.6421 24.3924ZM89.6544 25.7319C89.1752 25.4361 88.8072 24.9544 88.6423 24.3929L86.7233 24.9565C87.0248 25.983 87.6971 26.874 88.6037 27.4337L89.6544 25.7319ZM91.1318 25.9862C90.6638 26.1047 90.1316 26.0265 89.6544 25.7319L88.6037 27.4337C89.5121 27.9945 90.5973 28.1846 91.6226 27.9251L91.1318 25.9862ZM92.2241 25.1119C91.9901 25.5598 91.5968 25.8685 91.1318 25.9862L91.6226 27.9251C92.651 27.6647 93.5046 26.9801 93.9968 26.0379L92.2241 25.1119ZM92.3539 23.5311C92.5186 24.0919 92.4603 24.6599 92.2241 25.1119L93.9968 26.0379C94.4869 25.0998 94.5745 23.9948 94.2729 22.9676L92.3539 23.5311ZM87.9406 8.56764L92.3543 23.5323L94.2726 22.9665L89.8589 8.00185L87.9406 8.56764ZM86.9288 7.23217C87.4073 7.52712 87.7752 8.00758 87.9407 8.56789L89.8588 8.0016C89.5563 6.97695 88.884 6.08798 87.9784 5.52967L86.9288 7.23217ZM85.4537 6.97868C85.921 6.86048 86.4522 6.93836 86.9288 7.23217L87.9783 5.52967C87.0708 4.97021 85.9872 4.78073 84.9632 5.03977L85.4537 6.97868ZM71.388 10.5579L85.4551 6.97834L84.9619 5.04011L70.8948 8.6197L71.388 10.5579ZM70.2968 11.4332C70.5303 10.9851 70.9231 10.6761 71.3878 10.558L70.895 8.61965C69.8671 8.88098 69.0144 9.56641 68.5232 10.5089L70.2968 11.4332ZM70.1685 13.0137C70.0034 12.4533 70.0612 11.8853 70.2968 11.4332L68.5232 10.5089C68.0341 11.4473 67.9475 12.5523 68.25 13.579L70.1685 13.0137ZM71.1813 14.3512C70.7022 14.056 70.3338 13.5748 70.1685 13.0137L68.25 13.5789C68.5523 14.605 69.2253 15.4952 70.1322 16.0539L71.1813 14.3512ZM72.6582 14.6039C72.1906 14.7228 71.6586 14.6452 71.1813 14.3512L70.1322 16.0539C71.041 16.6138 72.1261 16.8028 73.151 16.5423L72.6582 14.6039ZM79.8935 12.7644L72.6582 14.6039L73.151 16.5423L80.3863 14.7027L79.8935 12.7644ZM66.8937 41.0216L81.0246 14.1997L79.2552 13.2674L65.1242 40.0894L66.8937 41.0216ZM65.4782 42.5071C66.0803 42.1555 66.5673 41.6409 66.8936 41.0218L65.1243 40.0893C64.9681 40.3857 64.7412 40.6215 64.4697 40.78L65.4782 42.5071ZM63.4894 43.0085C64.1887 43.0297 64.876 42.8587 65.4782 42.5071L64.4697 40.78C64.1982 40.9385 63.8826 41.0195 63.5502 41.0094L63.4894 43.0085ZM61.5091 42.4052C62.1092 42.7755 62.7911 42.9872 63.4894 43.0085L63.5502 41.0094C63.2168 40.9993 62.8742 40.8974 62.5595 40.7032L61.5091 42.4052ZM60.0504 40.9054C60.4081 41.5173 60.9095 42.0351 61.5091 42.4052L62.5595 40.7032C62.2445 40.5088 61.9729 40.2311 61.777 39.896L60.0504 40.9054ZM49.6948 23.18L60.0503 40.9051L61.7772 39.8962L51.4217 22.1711L49.6948 23.18ZM48.4208 22.1491C48.9323 22.3048 49.397 22.6702 49.6948 23.18L51.4217 22.1711C50.8815 21.2463 50.018 20.5447 49.0032 20.2358L48.4208 22.1491ZM46.9965 22.2984C47.4045 22.0582 47.9129 21.9945 48.4208 22.1491L49.0032 20.2358C47.9848 19.9258 46.8941 20.0378 45.9817 20.575L46.9965 22.2984ZM46.1689 23.4782C46.283 22.9546 46.5883 22.5388 46.9965 22.2984L45.9817 20.575C45.0696 21.1121 44.4416 22.0117 44.2148 23.0522L46.1689 23.4782ZM46.4435 25.1024C46.1456 24.5926 46.054 24.0053 46.1689 23.4782L44.2148 23.0522C43.9887 24.0892 44.1763 25.1866 44.7166 26.1113L46.4435 25.1024ZM56.7989 42.8276L46.4435 25.1024L44.7166 26.1113L55.072 43.8365L56.7989 42.8276ZM59.8224 45.9416C58.5927 45.1827 57.5483 44.1095 56.7987 42.8273L55.0721 43.8367C55.9835 45.3956 57.2577 46.7091 58.7721 47.6436L59.8224 45.9416ZM63.784 47.1572C62.4188 47.1158 61.0518 46.7003 59.8224 45.9416L58.7721 47.6436C60.2868 48.5784 61.9931 49.1037 63.7233 49.1563L63.784 47.1572ZM67.6119 46.1971C66.4668 46.8657 65.1483 47.1987 63.784 47.1572L63.7233 49.1563C65.4543 49.2089 67.1445 48.786 68.6203 47.9242L67.6119 46.1971ZM70.3364 43.3303C69.6977 44.5422 68.757 45.5284 67.6119 46.1971L68.6203 47.9242C70.0962 47.0625 71.2969 45.7975 72.1057 44.2628L70.3364 43.3303ZM84.5099 16.4324L70.3364 43.3304L72.1057 44.2627L86.2793 17.3648L84.5099 16.4324ZM6 61.94C6 61.6639 6.22386 61.44 6.5 61.44V59.44C5.11929 59.44 4 60.5593 4 61.94H6ZM6.5 62.44C6.22386 62.44 6 62.2161 6 61.94H4C4 63.3207 5.11929 64.44 6.5 64.44V62.44ZM346.5 62.44H6.5V64.44H346.5V62.44ZM347 61.94C347 62.2161 346.776 62.44 346.5 62.44V64.44C347.881 64.44 349 63.3207 349 61.94H347ZM346.5 61.44C346.776 61.44 347 61.6639 347 61.94H349C349 60.5593 347.881 59.44 346.5 59.44V61.44ZM6.5 61.44H346.5V59.44H6.5V61.44Z" fill="#11660F" mask="url(#path-1-outside-1_243_19)"/>
</g>
<defs>
<filter id="filter0_d_243_19" x="0" y="0" width="358.398" height="72.44" filterUnits="userSpaceOnUse" color-interpolation-filters="sRGB">
<feFlood flood-opacity="0" result="BackgroundImageFix"/>
<feColorMatrix in="SourceAlpha" type="matrix" values="0 0 0 0 0 0 0 0 0 0 0 0 0 0 0 0 0 0 127 0" result="hardAlpha"/>
<feOffset dy="4"/>
<feGaussianBlur stdDeviation="2"/>
<feComposite in2="hardAlpha" operator="out"/>
<feColorMatrix type="matrix" values="0 0 0 0 0 0 0 0 0 0 0 0 0 0 0 0 0 0 0.25 0"/>
<feBlend mode="normal" in2="BackgroundImageFix" result="effect1_dropShadow_243_19"/>
<feBlend mode="normal" in="SourceGraphic" in2="effect1_dropShadow_243_19" result="shape"/>
</filter>
</defs>
</svg>
